<?xml version="1.0" encoding="UTF-8" standalone="no"?>
<!-- Created with Inkscape (http://www.inkscape.org/) -->

<svg
   xmlns:dc="http://purl.org/dc/elements/1.1/"
   xmlns:cc="http://creativecommons.org/ns#"
   xmlns:rdf="http://www.w3.org/1999/02/22-rdf-syntax-ns#"
   xmlns:svg="http://www.w3.org/2000/svg"
   xmlns="http://www.w3.org/2000/svg"
   xmlns:xlink="http://www.w3.org/1999/xlink"
   xmlns:sodipodi="http://sodipodi.sourceforge.net/DTD/sodipodi-0.dtd"
   xmlns:inkscape="http://www.inkscape.org/namespaces/inkscape"
   width="210mm"
   height="297mm"
   id="svg4704"
   version="1.1"
   inkscape:version="0.91 r13725"
   sodipodi:docname="cadransOK.svg">
  <defs
     id="defs4706">
    <path
       sodipodi:type="arc"
       style="fill:#ffffff;fill-rule:evenodd;stroke:none"
       id="path3006-1-7-0-9"
       sodipodi:cx="200"
       sodipodi:cy="432.36218"
       sodipodi:rx="50"
       sodipodi:ry="50"
       d="m 250,432.36218 a 50,50 0 1 1 -100,0 50,50 0 1 1 100,0 z"
       transform="matrix(-1.7386544,-1.5361447,1.5361447,-1.7386544,241.63922,1713.5428)" />
    <path
       sodipodi:type="arc"
       style="fill:#ffffff;fill-rule:evenodd;stroke:none"
       id="path3006-1-7-0"
       sodipodi:cx="200"
       sodipodi:cy="432.36218"
       sodipodi:rx="50"
       sodipodi:ry="50"
       d="m 250,432.36218 a 50,50 0 1 1 -100,0 50,50 0 1 1 100,0 z"
       transform="matrix(-1.7386544,-1.5361447,1.5361447,-1.7386544,241.63922,1713.5428)" />
    <path
       sodipodi:type="arc"
       style="fill:#ffffff;fill-rule:evenodd;stroke:none"
       id="path3006-1-7-0-7"
       sodipodi:cx="200"
       sodipodi:cy="432.36218"
       sodipodi:rx="50"
       sodipodi:ry="50"
       d="m 250,432.36218 a 50,50 0 1 1 -100,0 50,50 0 1 1 100,0 z"
       transform="matrix(-1.7386544,-1.5361447,1.5361447,-1.7386544,241.63922,1713.5428)" />
    <path
       sodipodi:type="arc"
       style="fill:#ffffff;fill-rule:evenodd;stroke:none"
       id="path3006-1-7-0-9-1"
       sodipodi:cx="200"
       sodipodi:cy="432.36218"
       sodipodi:rx="50"
       sodipodi:ry="50"
       d="m 250,432.36218 a 50,50 0 1 1 -100,0 50,50 0 1 1 100,0 z"
       transform="matrix(-1.7386544,-1.5361447,1.5361447,-1.7386544,241.63922,1713.5428)" />
  </defs>
  <sodipodi:namedview
     id="base"
     pagecolor="#ffffff"
     bordercolor="#666666"
     borderopacity="1.0"
     inkscape:pageopacity="0.0"
     inkscape:pageshadow="2"
     inkscape:zoom="1.8455487"
     inkscape:cx="522.3498"
     inkscape:cy="855.86505"
     inkscape:document-units="px"
     inkscape:current-layer="layer1"
     showgrid="false"
     inkscape:window-width="1920"
     inkscape:window-height="1021"
     inkscape:window-x="0"
     inkscape:window-y="0"
     inkscape:window-maximized="1" />
  <metadata
     id="metadata4709">
    <rdf:RDF>
      <cc:Work
         rdf:about="">
        <dc:format>image/svg+xml</dc:format>
        <dc:type
           rdf:resource="http://purl.org/dc/dcmitype/StillImage" />
        <dc:title />
      </cc:Work>
    </rdf:RDF>
  </metadata>
  <g
     inkscape:label="Calque 1"
     inkscape:groupmode="layer"
     id="layer1">
    <path
       inkscape:connector-curvature="0"
       style="color:#000000;font-style:normal;font-variant:normal;font-weight:normal;font-stretch:normal;font-size:medium;line-height:normal;font-family:Sans;-inkscape-font-specification:Sans;text-indent:0;text-align:start;text-decoration:none;text-decoration-line:none;letter-spacing:normal;word-spacing:normal;text-transform:none;direction:ltr;block-progression:tb;writing-mode:lr-tb;baseline-shift:baseline;text-anchor:start;display:inline;overflow:visible;visibility:visible;fill:#000000;fill-opacity:1;stroke:none;stroke-width:0.81967211;marker:none;enable-background:accumulate"
       d="m 132.61425,87.31795 c -32.26522,0 -56.679018,11.453383 -70.753668,26.51194 l 1.568868,0.45633 c 14.075885,-14.536447 38.00813,-25.12452 69.1848,-25.12452 31.17667,0 57.82304,13.12236 68.78428,24.57573 l 1.53572,-0.75893 c -10.58598,-11.74135 -38.05235,-25.66055 -70.32,-25.66055 z"
       id="path3006-1-9-1-6-3"
       sodipodi:nodetypes="sccsccs" />
    <path
       style="color:#000000;font-style:normal;font-variant:normal;font-weight:normal;font-stretch:normal;font-size:medium;line-height:normal;font-family:Sans;-inkscape-font-specification:Sans;text-indent:0;text-align:start;text-decoration:none;text-decoration-line:none;letter-spacing:normal;word-spacing:normal;text-transform:none;direction:ltr;block-progression:tb;writing-mode:lr-tb;baseline-shift:baseline;text-anchor:start;display:inline;overflow:visible;visibility:visible;fill:#000000;fill-opacity:1;stroke:#000000;stroke-width:1.5;stroke-linecap:round;stroke-linejoin:round;stroke-miterlimit:4;stroke-dasharray:none;stroke-opacity:1;marker:none;enable-background:accumulate"
       d="m 132.13713,83.84578 0,4.375 c 0.16554,-7.5e-4 0.33429,0 0.5,0 0.16757,0 0.33261,-7.6e-4 0.5,0 l 0,-4.375 c -0.16858,-7.4e-4 -0.33124,0 -0.5,0 -0.16694,0 -0.33323,-7.3e-4 -0.5,0 z m 15.3125,0.96875 -0.59375,4.34375 c 0.33574,0.0442 0.66523,0.109 1,0.15625 l 0.59375,-4.375 c -0.33179,-0.0467 -0.66728,-0.0812 -1,-0.125 z m -29.96875,0.0625 c -0.33243,0.0447 -0.6685,0.0774 -1,0.125 l 0.59375,4.34375 c 0.33446,-0.0482 0.66456,-0.11112 1,-0.15625 z m 45.375,3.09375 -1.1875,4.21875 c 0.31456,0.0876 0.62411,0.1909 0.9375,0.28125 l 1.1875,-4.21875 c -0.31257,-0.09 -0.62382,-0.19392 -0.9375,-0.28125 z m -61.19194,-0.568845 c -0.32363,0.091 -0.64631,0.18744 -0.96875,0.28125 l 1.21875,4.21875 c 0.31962,-0.0931 0.64791,-0.15981 0.96875,-0.25 z m 76.23658,5.251881 -1.75,4 c 0.30337,0.1323 0.60433,0.27126 0.90625,0.40625 l 1.78125,-4 c -0.30834,-0.13785 -0.62769,-0.27111 -0.9375,-0.40625 z M 86.567016,92.461897 c -0.30369,0.13384 -0.60397,0.26981 -0.90625,0.40625 l 1.78125,4 c 0.30136,-0.13602 0.60343,-0.27293 0.90625,-0.40625 z m 105.971904,7.147276 -2.3125,3.718747 c -0.17992,0.28933 0.69515,0.82046 0.875,0.53125 l 2.3125,-3.71875 c -0.29043,-0.182567 -0.58279,-0.351267 -0.875,-0.531247 z M 72.288916,99.40828 c -0.28412,0.17612 -0.56132,0.35267 -0.84375,0.53125 l 2.3125,3.71875 c 0.28316,-0.17919 0.55881,-0.35463 0.84375,-0.53125 z m 131.968754,9.9375 -2.8125,3.375 c 0.25365,0.21011 0.49831,0.44387 0.75,0.65625 l 2.8125,-3.375 c -0.25348,-0.21373 -0.49462,-0.44473 -0.75,-0.65625 z m -143.558357,0.46875 c -0.26619,0.22144 -0.51715,0.46366 -0.78125,0.6875 l 2.8125,3.34375 c 0.25719,-0.21809 0.52201,-0.44053 0.78125,-0.65625 z"
       id="path3887-2-3-95"
       inkscape:connector-curvature="0"
       sodipodi:nodetypes="ccsccsccccccccccccccccccccccccccccccccssccccccccccccccccc" />
    <text
       xml:space="preserve"
       style="font-style:normal;font-variant:normal;font-weight:normal;font-stretch:normal;font-size:12px;line-height:125%;font-family:Verdana;-inkscape-font-specification:Verdana;letter-spacing:0px;word-spacing:0px;fill:#000000;fill-opacity:1;stroke:none"
       x="132.61424"
       y="119.27985"
       id="text4374-9-1"
       sodipodi:linespacing="125%"><tspan
         sodipodi:role="line"
         id="tspan4376-9-3"
         x="132.61424"
         y="119.27985"
         style="text-align:center;text-anchor:middle">% occupation</tspan><tspan
         sodipodi:role="line"
         x="132.61424"
         y="134.27985"
         style="text-align:center;text-anchor:middle"
         id="tspan3551">disque</tspan></text>
    <rect
       style="color:#000000;display:inline;overflow:visible;visibility:visible;fill:none;stroke:#000000;stroke-width:0.30000001;stroke-linecap:round;stroke-linejoin:round;stroke-miterlimit:4;stroke-dasharray:none;stroke-dashoffset:0;stroke-opacity:1;marker:none;enable-background:accumulate"
       id="rect5077-0"
       width="226.04243"
       height="195.88303"
       x="20.789557"
       y="20.231073"
       ry="0" />
    <text
       sodipodi:linespacing="0%"
       id="text3507"
       style="font-style:normal;font-variant:normal;font-weight:normal;font-stretch:normal;font-size:12px;line-height:0%;font-family:Verdana;-inkscape-font-specification:Verdana;letter-spacing:0px;word-spacing:0px;fill:#000000;fill-opacity:1;stroke:none"
       xml:space="preserve"
       transform="translate(-425.04005,-458.41342)"><textPath
         dx="0 0 0 0 0 0"
         style="font-size:10px;line-height:0%;letter-spacing:-0.51999998px"
         id="textPath3509"
         xlink:href="#path3006-1-7-0-7">     0         20        40        60        80      100</textPath></text>
    <path
       sodipodi:nodetypes="sccsccs"
       id="path4353"
       d="m 372.61425,87.31795 c -32.26522,0 -56.67902,11.453383 -70.75367,26.51194 l 1.56887,0.45633 c 14.07588,-14.536447 38.00813,-25.12452 69.1848,-25.12452 31.17667,0 57.82304,13.12236 68.78428,24.57573 l 1.53572,-0.75893 c -10.58598,-11.74135 -38.05235,-25.66055 -70.32,-25.66055 z"
       style="color:#000000;font-style:normal;font-variant:normal;font-weight:normal;font-stretch:normal;font-size:medium;line-height:normal;font-family:Sans;-inkscape-font-specification:Sans;text-indent:0;text-align:start;text-decoration:none;text-decoration-line:none;letter-spacing:normal;word-spacing:normal;text-transform:none;direction:ltr;block-progression:tb;writing-mode:lr-tb;baseline-shift:baseline;text-anchor:start;display:inline;overflow:visible;visibility:visible;fill:#000000;fill-opacity:1;stroke:none;stroke-width:0.81967211;marker:none;enable-background:accumulate"
       inkscape:connector-curvature="0" />
    <path
       sodipodi:nodetypes="ccccccccccccccccccccccccccssccccccccccccccccc"
       inkscape:connector-curvature="0"
       id="path4355"
       d="m 394.90779,85.559566 -0.80927,4.34375 c 0.33574,0.0442 0.66523,0.109 1,0.15625 l 0.80927,-4.303161 c -0.33179,-0.0467 -0.66728,-0.153039 -1,-0.196839 z m -35.969,-0.858918 c -0.33243,0.0447 -0.59375,0.07619 -0.92525,0.123795 l 0.50667,4.344954 c 0.33446,-0.0482 0.61667,-0.107011 0.95211,-0.152141 z m 51.17647,5.11991 -1.40847,4.155615 c 0.31456,0.0876 0.56097,0.285602 0.87436,0.375952 l 1.47161,-4.250317 c -0.31257,-0.09 -0.62382,-0.19392 -0.9375,-0.28125 z m -68.45132,-2.418623 c -0.32363,0.091 -0.64631,0.18744 -0.96875,0.28125 l 1.21875,4.21875 c 0.31962,-0.0931 0.64791,-0.15981 0.96875,-0.25 z m -16.86469,5.817576 c -0.30369,0.13384 -0.60397,0.26981 -0.90625,0.40625 l 1.78125,4 c 0.30136,-0.13602 0.60343,-0.27293 0.90625,-0.40625 z m 103.42932,4.186597 -2.3125,3.718742 c -0.17992,0.28933 0.69515,0.82046 0.875,0.53125 l 2.3125,-3.718745 c -0.29043,-0.182567 -0.58279,-0.351267 -0.875,-0.531247 z m -119.59241,5.165642 c -0.28412,0.17612 -0.56132,0.35267 -0.84375,0.53125 l 2.59661,3.51356 c 0.28316,-0.17919 0.48698,-0.42295 0.77192,-0.59957 z m 135.62151,6.77403 -2.8125,3.375 c 0.25365,0.21011 0.49831,0.44387 0.75,0.65625 l 2.8125,-3.375 c -0.25348,-0.21373 -0.49462,-0.44473 -0.75,-0.65625 z m -143.55836,0.46875 c -0.26619,0.22144 -0.51715,0.46366 -0.78125,0.6875 l 2.8125,3.34375 c 0.25719,-0.21809 0.52201,-0.44053 0.78125,-0.65625 z"
       style="color:#000000;font-style:normal;font-variant:normal;font-weight:normal;font-stretch:normal;font-size:medium;line-height:normal;font-family:Sans;-inkscape-font-specification:Sans;text-indent:0;text-align:start;text-decoration:none;text-decoration-line:none;letter-spacing:normal;word-spacing:normal;text-transform:none;direction:ltr;block-progression:tb;writing-mode:lr-tb;baseline-shift:baseline;text-anchor:start;display:inline;overflow:visible;visibility:visible;fill:#000000;fill-opacity:1;stroke:#000000;stroke-width:1.5;stroke-linecap:round;stroke-linejoin:round;stroke-miterlimit:4;stroke-dasharray:none;stroke-opacity:1;marker:none;enable-background:accumulate" />
    <text
       sodipodi:linespacing="125%"
       id="text4357"
       y="119.27985"
       x="372.61426"
       style="font-style:normal;font-variant:normal;font-weight:normal;font-stretch:normal;font-size:12px;line-height:125%;font-family:Verdana;-inkscape-font-specification:Verdana;letter-spacing:0px;word-spacing:0px;fill:#000000;fill-opacity:1;stroke:none"
       xml:space="preserve"><tspan
         id="tspan4361"
         style="text-align:center;text-anchor:middle"
         y="119.27985"
         x="372.61426"
         sodipodi:role="line">load 1 min</tspan></text>
    <text
       xml:space="preserve"
       style="font-style:normal;font-variant:normal;font-weight:normal;font-stretch:normal;font-size:12px;line-height:0%;font-family:Verdana;-inkscape-font-specification:Verdana;letter-spacing:0px;word-spacing:0px;fill:#000000;fill-opacity:1;stroke:none"
       id="text4365"
       sodipodi:linespacing="0%"
       transform="translate(-185.04005,-458.41342)"><textPath
         xlink:href="#path3006-1-7-0-7"
         id="textPath4367"
         style="font-size:10px;line-height:0%;letter-spacing:-0.51999998px"
         dx="0 0 0 0 0">       0.1  0.2 0.4  0.7  1       2    3     5     9</textPath></text>
    <path
       sodipodi:nodetypes="ccsccsc"
       inkscape:connector-curvature="0"
       id="path4404"
       d="m 372.13713,83.702101 0,4.375 c 0.16554,-7.5e-4 0.33429,0 0.5,0 0.16757,0 0.33261,-7.6e-4 0.5,0 l 0,-4.375 c -0.16858,-7.4e-4 -0.33124,0 -0.5,0 -0.16694,0 -0.33323,-7.3e-4 -0.5,0 z"
       style="color:#000000;font-style:normal;font-variant:normal;font-weight:normal;font-stretch:normal;font-size:medium;line-height:normal;font-family:Sans;-inkscape-font-specification:Sans;text-indent:0;text-align:start;text-decoration:none;text-decoration-line:none;letter-spacing:normal;word-spacing:normal;text-transform:none;direction:ltr;block-progression:tb;writing-mode:lr-tb;baseline-shift:baseline;text-anchor:start;display:inline;overflow:visible;visibility:visible;fill:#000000;fill-opacity:1;stroke:#000000;stroke-width:1.5;stroke-linecap:round;stroke-linejoin:round;stroke-miterlimit:4;stroke-dasharray:none;stroke-opacity:1;marker:none;enable-background:accumulate" />
    <rect
       ry="0"
       y="20.231073"
       x="258.78955"
       height="195.88303"
       width="226.04243"
       id="rect4417"
       style="color:#000000;display:inline;overflow:visible;visibility:visible;fill:none;stroke:#000000;stroke-width:0.30000001;stroke-linecap:round;stroke-linejoin:round;stroke-miterlimit:4;stroke-dasharray:none;stroke-dashoffset:0;stroke-opacity:1;marker:none;enable-background:accumulate" />
    <path
       inkscape:connector-curvature="0"
       style="color:#000000;font-style:normal;font-variant:normal;font-weight:normal;font-stretch:normal;font-size:medium;line-height:normal;font-family:Sans;-inkscape-font-specification:Sans;text-indent:0;text-align:start;text-decoration:none;text-decoration-line:none;letter-spacing:normal;word-spacing:normal;text-transform:none;direction:ltr;block-progression:tb;writing-mode:lr-tb;baseline-shift:baseline;text-anchor:start;display:inline;overflow:visible;visibility:visible;fill:#000000;fill-opacity:1;stroke:none;stroke-width:0.81967211;marker:none;enable-background:accumulate"
       d="m 614.61425,87.31795 c -32.26522,0 -56.67902,11.453383 -70.75367,26.51194 l 1.56887,0.45633 c 14.07588,-14.536447 38.00813,-25.12452 69.1848,-25.12452 31.17667,0 57.82304,13.12236 68.78428,24.57573 l 1.53572,-0.75893 c -10.58598,-11.74135 -38.05235,-25.66055 -70.32,-25.66055 z"
       id="path4530"
       sodipodi:nodetypes="sccsccs" />
    <path
       style="color:#000000;font-style:normal;font-variant:normal;font-weight:normal;font-stretch:normal;font-size:medium;line-height:normal;font-family:Sans;-inkscape-font-specification:Sans;text-indent:0;text-align:start;text-decoration:none;text-decoration-line:none;letter-spacing:normal;word-spacing:normal;text-transform:none;direction:ltr;block-progression:tb;writing-mode:lr-tb;baseline-shift:baseline;text-anchor:start;display:inline;overflow:visible;visibility:visible;fill:#000000;fill-opacity:1;stroke:#000000;stroke-width:1.5;stroke-linecap:round;stroke-linejoin:round;stroke-miterlimit:4;stroke-dasharray:none;stroke-opacity:1;marker:none;enable-background:accumulate"
       d="m 636.90779,85.559566 -0.80927,4.34375 c 0.33574,0.0442 0.66523,0.109 1,0.15625 l 0.80927,-4.303161 c -0.33179,-0.0467 -0.66728,-0.153039 -1,-0.196839 z m -35.969,-0.858918 c -0.33243,0.0447 -0.59375,0.07619 -0.92525,0.123795 l 0.50667,4.344954 c 0.33446,-0.0482 0.61667,-0.107011 0.95211,-0.152141 z m 51.17647,5.11991 -1.40847,4.155615 c 0.31456,0.0876 0.56097,0.285602 0.87436,0.375952 l 1.47161,-4.250317 c -0.31257,-0.09 -0.62382,-0.19392 -0.9375,-0.28125 z m -68.45132,-2.418623 c -0.32363,0.091 -0.64631,0.18744 -0.96875,0.28125 l 1.21875,4.21875 c 0.31962,-0.0931 0.64791,-0.15981 0.96875,-0.25 z m -16.86469,5.817576 c -0.30369,0.13384 -0.60397,0.26981 -0.90625,0.40625 l 1.78125,4 c 0.30136,-0.13602 0.60343,-0.27293 0.90625,-0.40625 z m 103.42932,4.186597 -2.3125,3.718742 c -0.17992,0.28933 0.69515,0.82046 0.875,0.53125 l 2.3125,-3.718745 c -0.29043,-0.182567 -0.58279,-0.351267 -0.875,-0.531247 z m -119.59241,5.165642 c -0.28412,0.17612 -0.56132,0.35267 -0.84375,0.53125 l 2.59661,3.51356 c 0.28316,-0.17919 0.48698,-0.42295 0.77192,-0.59957 z m 135.62151,6.77403 -2.8125,3.375 c 0.25365,0.21011 0.49831,0.44387 0.75,0.65625 l 2.8125,-3.375 c -0.25348,-0.21373 -0.49462,-0.44473 -0.75,-0.65625 z m -143.55836,0.46875 c -0.26619,0.22144 -0.51715,0.46366 -0.78125,0.6875 l 2.8125,3.34375 c 0.25719,-0.21809 0.52201,-0.44053 0.78125,-0.65625 z"
       id="path4532"
       inkscape:connector-curvature="0"
       sodipodi:nodetypes="ccccccccccccccccccccccccccssccccccccccccccccc" />
    <text
       xml:space="preserve"
       style="font-style:normal;font-variant:normal;font-weight:normal;font-stretch:normal;font-size:12px;line-height:125%;font-family:Verdana;-inkscape-font-specification:Verdana;letter-spacing:0px;word-spacing:0px;fill:#000000;fill-opacity:1;stroke:none"
       x="614.61426"
       y="119.27985"
       id="text4534"
       sodipodi:linespacing="125%"><tspan
         sodipodi:role="line"
         x="614.61426"
         y="119.27985"
         style="text-align:center;text-anchor:middle"
         id="tspan4536">load 5 min</tspan></text>
    <text
       sodipodi:linespacing="0%"
       id="text4538"
       style="font-style:normal;font-variant:normal;font-weight:normal;font-stretch:normal;font-size:12px;line-height:0%;font-family:Verdana;-inkscape-font-specification:Verdana;letter-spacing:0px;word-spacing:0px;fill:#000000;fill-opacity:1;stroke:none"
       xml:space="preserve"
       transform="translate(56.95995,-458.41342)"><textPath
         dx="0 0 0 0 0"
         style="font-size:10px;line-height:0%;letter-spacing:-0.51999998px"
         id="textPath4540"
         xlink:href="#path3006-1-7-0-7">       0.1  0.2 0.4  0.7  1       2    3     5     9</textPath></text>
    <path
       style="color:#000000;font-style:normal;font-variant:normal;font-weight:normal;font-stretch:normal;font-size:medium;line-height:normal;font-family:Sans;-inkscape-font-specification:Sans;text-indent:0;text-align:start;text-decoration:none;text-decoration-line:none;letter-spacing:normal;word-spacing:normal;text-transform:none;direction:ltr;block-progression:tb;writing-mode:lr-tb;baseline-shift:baseline;text-anchor:start;display:inline;overflow:visible;visibility:visible;fill:#000000;fill-opacity:1;stroke:#000000;stroke-width:1.5;stroke-linecap:round;stroke-linejoin:round;stroke-miterlimit:4;stroke-dasharray:none;stroke-opacity:1;marker:none;enable-background:accumulate"
       d="m 614.13713,83.702101 0,4.375 c 0.16554,-7.5e-4 0.33429,0 0.5,0 0.16757,0 0.33261,-7.6e-4 0.5,0 l 0,-4.375 c -0.16858,-7.4e-4 -0.33124,0 -0.5,0 -0.16694,0 -0.33323,-7.3e-4 -0.5,0 z"
       id="path4542"
       inkscape:connector-curvature="0"
       sodipodi:nodetypes="ccsccsc" />
    <rect
       style="color:#000000;display:inline;overflow:visible;visibility:visible;fill:none;stroke:#000000;stroke-width:0.30000001;stroke-linecap:round;stroke-linejoin:round;stroke-miterlimit:4;stroke-dasharray:none;stroke-dashoffset:0;stroke-opacity:1;marker:none;enable-background:accumulate"
       id="rect4544"
       width="226.04243"
       height="195.88303"
       x="500.78955"
       y="20.231073"
       ry="0" />
  </g>
</svg>
